<svg width="243" height="242" xmlns="http://www.w3.org/2000/svg" xmlns:xlink="http://www.w3.org/1999/xlink" overflow="hidden"><defs><clipPath id="clip0"><rect x="545" y="228" width="243" height="242"/></clipPath></defs><g clip-path="url(#clip0)" transform="translate(-545 -228)"><path d="M197.129 120.748C196.373 120.748 195.365 120.748 194.608 120.748 194.608 120.748 194.608 120.748 194.608 120.748 194.608 108.396 188.558 97.0521 178.727 89.9938 168.644 82.9354 155.787 81.1708 144.192 85.2042 134.613 66.55 113.438 56.9708 93.2708 61.7604 73.1042 66.55 58.4833 84.7 58.4833 105.623 58.4833 105.623 58.4833 105.875 58.4833 106.127 44.6188 103.858 30.7542 109.656 22.1833 120.748 13.8646 132.092 12.3521 146.965 18.15 159.569 24.2 172.173 36.8042 180.492 50.6688 181.248L50.6688 181.5 196.877 181.5C213.515 181.5 227.127 167.887 227.127 151.25 227.127 134.613 213.767 120.748 197.129 120.748Z" fill="#E4D9FF" transform="matrix(1.00413 0 0 1 545 228)"/></g></svg>